<svg data-v-423bf9ae="" xmlns="http://www.w3.org/2000/svg" viewBox="0 0 151.39494833524682 60" class="font"><!----><!----><!----><g data-v-423bf9ae="" id="cce338de-7ccc-4cf1-a5ae-7c505558b414" fill="white" transform="matrix(4.408725738525391,0,0,4.408725738525391,-2.2904679775238037,-14.070035934448242)"><path d="M2.84 13.17L2.84 7.71L2.84 7.71Q2.84 7.31 2.69 7.15L2.69 7.15L2.69 7.15Q2.55 6.99 2.23 6.99L2.23 6.99L2.23 6.99Q1.99 6.99 1.79 7.13L1.79 7.13L1.79 7.13Q1.58 7.27 1.48 7.55L1.48 7.55L1.48 13.31L1.48 13.31Q1.58 13.59 1.79 13.73L1.79 13.73L1.79 13.73Q1.99 13.87 2.23 13.87L2.23 13.87L2.23 13.87Q2.55 13.87 2.69 13.71L2.69 13.71L2.69 13.71Q2.84 13.55 2.84 13.17L2.84 13.17ZM1.48 16.66L0.52 16.66L0.52 6.05L1.33 6.05L1.33 6.05Q1.37 6.37 1.37 6.71L1.37 6.71L1.37 6.71Q1.53 6.34 1.81 6.15L1.81 6.15L1.81 6.15Q2.09 5.96 2.56 5.96L2.56 5.96L2.56 5.96Q3.16 5.96 3.48 6.36L3.48 6.36L3.48 6.36Q3.79 6.75 3.79 7.59L3.79 7.59L3.79 13.26L3.79 13.26Q3.79 14.14 3.50 14.49L3.50 14.49L3.50 14.49Q3.21 14.84 2.53 14.84L2.53 14.84L2.53 14.84Q2.18 14.84 1.91 14.69L1.91 14.69L1.91 14.69Q1.64 14.55 1.48 14.31L1.48 14.31L1.48 16.66ZM7.92 14.71L7.10 14.71L7.10 14.71Q7.08 14.56 7.08 14.41L7.08 14.41L7.08 14.41Q7.07 14.25 7.07 14.08L7.07 14.08L7.07 14.08Q6.87 14.43 6.56 14.62L6.56 14.62L6.56 14.62Q6.24 14.81 5.84 14.81L5.84 14.81L5.84 14.81Q4.72 14.81 4.72 13.31L4.72 13.31L4.72 6.05L5.68 6.05L5.68 13.16L5.68 13.16Q5.68 13.55 5.81 13.71L5.81 13.71L5.81 13.71Q5.94 13.86 6.22 13.86L6.22 13.86L6.22 13.86Q6.44 13.86 6.64 13.74L6.64 13.74L6.64 13.74Q6.85 13.62 6.96 13.34L6.96 13.34L6.96 6.05L7.92 6.05L7.92 14.71ZM11.28 13.06L11.28 7.57L11.28 7.57Q11.28 6.92 10.67 6.92L10.67 6.92L10.67 6.92Q10.43 6.92 10.23 7.06L10.23 7.06L10.23 7.06Q10.02 7.20 9.93 7.48L9.93 7.48L9.93 13.22L9.93 13.22Q10.02 13.50 10.23 13.64L10.23 13.64L10.23 13.64Q10.43 13.79 10.67 13.79L10.67 13.79L10.67 13.79Q10.99 13.79 11.14 13.63L11.14 13.63L11.14 13.63Q11.28 13.47 11.28 13.06L11.28 13.06ZM9.48 14.71L8.96 14.71L8.96 3.19L9.93 3.19L9.93 6.47L9.93 6.47Q10.08 6.22 10.35 6.06L10.35 6.06L10.35 6.06Q10.63 5.91 10.98 5.91L10.98 5.91L10.98 5.91Q11.65 5.91 11.94 6.28L11.94 6.28L11.94 6.28Q12.24 6.65 12.24 7.50L12.24 7.50L12.24 13.05L12.24 13.05Q12.24 13.97 11.90 14.39L11.90 14.39L11.90 14.39Q11.56 14.81 10.81 14.81L10.81 14.81L10.81 14.81Q10.37 14.81 10.09 14.60L10.09 14.60L10.09 14.60Q9.80 14.39 9.63 14.07L9.63 14.07L9.63 14.07Q9.60 14.24 9.57 14.40L9.57 14.40L9.57 14.40Q9.53 14.56 9.48 14.71L9.48 14.71ZM14.17 14.71L13.20 14.71L13.20 3.19L14.17 3.19L14.17 14.71ZM16.20 4.94L15.23 4.94L15.23 3.19L16.20 3.19L16.20 4.94ZM16.20 14.71L15.23 14.71L15.23 6.05L16.20 6.05L16.20 14.71ZM19.28 13.20L19.28 12.21L19.28 12.21Q19.28 11.93 19.20 11.73L19.20 11.73L19.20 11.73Q19.12 11.52 18.86 11.20L18.86 11.20L18.86 11.20Q18.56 10.85 18.20 10.54L18.20 10.54L18.20 10.54Q17.84 10.22 17.57 9.90L17.57 9.90L17.57 9.90Q17.29 9.59 17.21 9.28L17.21 9.28L17.21 9.28Q17.12 8.97 17.12 8.47L17.12 8.47L17.12 7.57L17.12 7.57Q17.12 6.68 17.51 6.29L17.51 6.29L17.51 6.29Q17.91 5.91 18.66 5.91L18.66 5.91L18.66 5.91Q19.54 5.91 19.87 6.30L19.87 6.30L19.87 6.30Q20.20 6.69 20.20 7.57L20.20 7.57L20.20 8.99L19.32 8.99L19.32 7.57L19.32 7.57Q19.32 7.25 19.14 7.06L19.14 7.06L19.14 7.06Q18.96 6.87 18.69 6.87L18.69 6.87L18.69 6.87Q18.06 6.87 18.06 7.57L18.06 7.57L18.06 8.60L18.06 8.60Q18.06 8.90 18.14 9.08L18.14 9.08L18.14 9.08Q18.21 9.25 18.45 9.51L18.45 9.51L18.45 9.51Q18.73 9.81 19.08 10.09L19.08 10.09L19.08 10.09Q19.43 10.37 19.70 10.68L19.70 10.68L19.70 10.68Q20.02 11.06 20.13 11.42L20.13 11.42L20.13 11.42Q20.24 11.77 20.24 12.33L20.24 12.33L20.24 13.27L20.24 13.27Q20.24 14.11 19.84 14.48L19.84 14.48L19.84 14.48Q19.45 14.84 18.63 14.84L18.63 14.84L18.63 14.84Q17.12 14.84 17.12 13.23L17.12 13.23L17.12 11.82L17.99 11.82L17.99 13.20L17.99 13.20Q17.99 13.52 18.18 13.71L18.18 13.71L18.18 13.71Q18.37 13.90 18.65 13.90L18.65 13.90L18.65 13.90Q19.28 13.90 19.28 13.20L19.28 13.20ZM24.39 14.71L23.42 14.71L23.42 7.56L23.42 7.56Q23.42 7.18 23.30 7.02L23.30 7.02L23.30 7.02Q23.17 6.86 22.86 6.86L22.86 6.86L22.86 6.86Q22.65 6.86 22.44 6.99L22.44 6.99L22.44 6.99Q22.23 7.11 22.12 7.39L22.12 7.39L22.12 14.71L21.15 14.71L21.15 3.19L22.12 3.19L22.12 6.54L22.12 6.54Q22.32 6.26 22.61 6.08L22.61 6.08L22.61 6.08Q22.90 5.91 23.27 5.91L23.27 5.91L23.27 5.91Q23.86 5.91 24.12 6.29L24.12 6.29L24.12 6.29Q24.39 6.66 24.39 7.50L24.39 7.50L24.39 14.71ZM26.38 4.94L25.41 4.94L25.41 3.19L26.38 3.19L26.38 4.94ZM26.38 14.71L25.41 14.71L25.41 6.05L26.38 6.05L26.38 14.71ZM30.67 14.71L29.71 14.71L29.71 7.56L29.71 7.56Q29.71 7.18 29.58 7.02L29.58 7.02L29.58 7.02Q29.46 6.86 29.15 6.86L29.15 6.86L29.15 6.86Q28.94 6.86 28.73 6.99L28.73 6.99L28.73 6.99Q28.52 7.11 28.41 7.39L28.41 7.39L28.41 14.71L27.44 14.71L27.44 6.05L28.25 6.05L28.25 6.05Q28.29 6.37 28.29 6.71L28.29 6.71L28.29 6.71Q28.49 6.34 28.81 6.13L28.81 6.13L28.81 6.13Q29.13 5.91 29.54 5.91L29.54 5.91L29.54 5.91Q30.13 5.91 30.40 6.29L30.40 6.29L30.40 6.29Q30.67 6.66 30.67 7.50L30.67 7.50L30.67 14.71ZM33.94 15.20L33.94 13.76L33.94 13.76Q33.78 14.01 33.49 14.16L33.49 14.16L33.49 14.16Q33.21 14.31 32.84 14.31L32.84 14.31L32.84 14.31Q32.17 14.31 31.88 13.94L31.88 13.94L31.88 13.94Q31.58 13.58 31.58 12.73L31.58 12.73L31.58 7.59L31.58 7.59Q31.58 6.75 31.90 6.36L31.90 6.36L31.90 6.36Q32.21 5.96 32.82 5.96L32.82 5.96L32.82 5.96Q33.26 5.96 33.55 6.15L33.55 6.15L33.55 6.15Q33.84 6.34 34.02 6.71L34.02 6.71L34.02 6.71Q34.02 6.54 34.03 6.37L34.03 6.37L34.03 6.37Q34.03 6.20 34.05 6.05L34.05 6.05L34.86 6.05L34.86 15.16L34.86 15.16Q34.86 15.96 34.48 16.38L34.48 16.38L34.48 16.38Q34.09 16.80 33.28 16.80L33.28 16.80L33.28 16.80Q32.83 16.80 32.52 16.69L32.52 16.69L32.52 16.69Q32.21 16.58 32.03 16.37L32.03 16.37L32.03 16.37Q31.85 16.16 31.77 15.86L31.77 15.86L31.77 15.86Q31.70 15.55 31.70 15.16L31.70 15.16L31.70 14.81L32.56 14.81L32.56 15.20L32.56 15.20Q32.56 15.96 33.26 15.96L33.26 15.96L33.26 15.96Q33.94 15.96 33.94 15.20L33.94 15.20ZM33.94 12.82L33.94 7.56L33.94 7.56Q33.82 7.28 33.61 7.13L33.61 7.13L33.61 7.13Q33.40 6.99 33.15 6.99L33.15 6.99L33.15 6.99Q32.79 6.99 32.66 7.16L32.66 7.16L32.66 7.16Q32.54 7.34 32.54 7.64L32.54 7.64L32.54 12.70L32.54 12.70Q32.54 13.06 32.67 13.22L32.67 13.22L32.67 13.22Q32.80 13.38 33.15 13.38L33.15 13.38L33.15 13.38Q33.40 13.38 33.61 13.24L33.61 13.24L33.61 13.24Q33.82 13.10 33.94 12.82L33.94 12.82Z"></path></g><!----><!----></svg>